<svg width="85" height="81" viewBox="0 0 85 81" fill="none" xmlns="http://www.w3.org/2000/svg">
<path d="M42.5 5.0625C35.145 5.0625 27.9552 7.14087 21.8397 11.0348C15.7243 14.9287 10.9579 20.4633 8.14325 26.9387C5.32861 33.414 4.59218 40.5393 6.02706 47.4135C7.46195 54.2877 11.0037 60.6021 16.2045 65.5581C21.4052 70.5141 28.0314 73.8892 35.2451 75.2566C42.4588 76.6239 49.9359 75.9222 56.7311 73.24C63.5262 70.5578 69.3341 66.0157 73.4203 60.188C77.5065 54.3604 79.6875 47.5089 79.6875 40.5C79.6875 31.1014 75.7696 22.0877 68.7955 15.4419C61.8215 8.79608 52.3628 5.0625 42.5 5.0625ZM42.5 17.7188C44.8641 17.7188 47.1751 18.3868 49.1408 19.6384C51.1065 20.89 52.6386 22.669 53.5433 24.7504C54.448 26.8317 54.6847 29.122 54.2235 31.3316C53.7623 33.5411 52.6238 35.5708 50.9521 37.1638C49.2805 38.7568 47.1506 39.8416 44.832 40.2811C42.5133 40.7206 40.1099 40.4951 37.9258 39.6329C35.7416 38.7708 33.8748 37.3108 32.5614 35.4377C31.2479 33.5645 30.5469 31.3622 30.5469 29.1094C30.5434 27.6126 30.8502 26.1299 31.4496 24.7464C32.0491 23.3629 32.9294 22.1059 34.0401 21.0475C35.1507 19.9892 36.4698 19.1503 37.9216 18.579C39.3734 18.0078 40.9293 17.7154 42.5 17.7188ZM63.75 63.0788C57.9249 68.0965 50.3523 70.8747 42.5 70.8747C34.6478 70.8747 27.0751 68.0965 21.25 63.0788V61.6106C21.1494 58.1448 22.4879 54.7812 24.9746 52.2503C27.4614 49.7194 30.8956 48.2258 34.5313 48.0938H50.4688C54.088 48.2322 57.506 49.7173 59.9891 52.2302C62.4722 54.7432 63.8225 58.0837 63.75 61.5347V63.0788Z" fill="#2160AA"/>
</svg>
